<svg xmlns="http://www.w3.org/2000/svg" width="64" height="64" viewBox="0 0 24 24">
  <circle cx="12" cy="12" r="10" fill="currentColor"/>
  <path d="M12 2a10 10 0 0 0-3.16 19.49c.5.09.68-.22.68-.48 0-.24-.01-.87-.01-1.71-2.78.6-3.37-1.34-3.37-1.34-.45-1.16-1.11-1.47-1.11-1.47-.9-.61.07-.6.07-.6 1 .07 1.53 1.02 1.53 1.02 .89 1.52 2.34 1.08 2.91.82 .09-.65.35-1.08.63-1.33-2.22-.25-4.56-1.11-4.56-4.93 0-1.09.39-1.98 1.02-2.68-.1-.25-.44-1.27.1-2.65 0 0 .84-.27 2.75 1.02A9.6 9.6 0 0 1 12 6.8c.85 0 1.7.12 2.5.35 1.9-1.29 2.74-1.02 2.74-1.02 .55 1.38.21 2.4.1 2.65 .64.7 1.02 1.59 1.02 2.68 0 3.83-2.34 4.67-4.57 4.92 .36.31.67.92.67 1.86 0 1.34-.01 2.42-.01 2.75 0 .27.18.58.69.48A10 10 0 0 0 12 2z" fill="#fff"/>
</svg>
